<?xml version="1.0" encoding="utf-8"?>
<!DOCTYPE svg PUBLIC "-//W3C//DTD SVG 1.1//EN" "http://www.w3.org/Graphics/SVG/1.1/DTD/svg11.dtd">
<svg version="1.1" xmlns:sketch="http://www.bohemiancoding.com/sketch/ns"
         xmlns="http://www.w3.org/2000/svg" xmlns:xlink="http://www.w3.org/1999/xlink" x="0px" y="0px" viewBox="97 6 233 30"
         style="enable-background:new 97 6 233 30;" xml:space="preserve">
<path id="nyulibraries-logo" fill="#FFFFFF" d="M202.7,29.6v-17h1.3v15.9h10v1.2H202.7z M217.9,12.5v16.8
        h1.3V12.5H217.9z M231.5,29.3h-7.3V12.6h7c3.3,0,5.5,1.6,5.5,4.1v0c0,2.3-1.5,3.4-2.9,4c2,0.5,3.8,1.7,3.8,4v0
        C237.6,27.6,235.2,29.3,231.5,29.3z M235.4,16.8c0-1.8-1.5-3.1-4.2-3.1h-5.7v6.6h5.6C233.6,20.3,235.4,19.1,235.4,16.8L235.4,16.8
        L235.4,16.8L235.4,16.8z M236.3,24.7c0-2.1-1.8-3.3-5.1-3.3h-5.7v6.7h6.1C234.5,28.2,236.3,26.9,236.3,24.7L236.3,24.7z M253.7,29.3
        l-5.4-7h-5.5v7h-1.3V12.6h7.1c3.6,0,6,2,6,4.8v0c0,2.8-2.1,4.4-4.9,4.8l5.6,7.2H253.7z M253.4,17.4c0-2.3-1.8-3.7-4.8-3.7h-5.8v7.6
        h5.7C251.3,21.3,253.4,19.8,253.4,17.4L253.4,17.4L253.4,17.4z M273,29.3l-2.1-4.7h-9.9l-2.1,4.7h-1.3l7.8-16.9h1.2l7.8,16.9H273z
         M265.9,13.8l-4.5,9.7h8.9L265.9,13.8z M289.9,29.3l-5.4-7h-5.5v7h-1.3V12.6h7.1c3.6,0,6,2,6,4.8v0c0,2.8-2.1,4.4-4.9,4.8l5.6,7.2
        L289.9,29.3L289.9,29.3z M289.7,17.4c0-2.3-1.8-3.7-4.8-3.7h-5.8v7.6h5.7C287.6,21.3,289.7,19.8,289.7,17.4L289.7,17.4L289.7,17.4z
         M295.1,12.5v16.8h1.3V12.5H295.1z M301.8,29.3V12.6h12v1.2H303v6.6h9.7v1.1H303v6.7h10.9v1.2L301.8,29.3L301.8,29.3z M323.6,29.6
        c-2.7,0-4.8-0.9-6.8-2.7l0.8-0.9c1.9,1.7,3.6,2.5,6,2.5c2.5,0,4.3-1.4,4.3-3.3v0c0-1.8-0.9-2.8-4.8-3.6c-4-0.8-5.7-2.2-5.7-4.7v0
        c0-2.5,2.3-4.4,5.4-4.4c2.5,0,4.1,0.7,5.8,2l-0.8,1c-1.6-1.4-3.2-1.9-5-1.9c-2.5,0-4.1,1.4-4.1,3.2v0c0,1.8,0.9,2.9,4.9,3.7
        c3.9,0.8,5.5,2.2,5.5,4.6v0C329.2,27.7,326.8,29.6,323.6,29.6z M194.8,35.9V6h-1.5v29.9H194.8z M134.8,12.3h3.5l8,10.5V12.3h3.7
        v17.1h-3.2l-8.3-10.9v10.9h-3.7V12.3L134.8,12.3z M158.4,22.7l-6.6-10.4h4.4l4.1,6.9l4.2-6.9h4.3l-6.6,10.3v6.8h-3.8L158.4,22.7
        L158.4,22.7z M170.3,21.9v-9.6h3.7v9.5c0,2.7,1.4,4.2,3.6,4.2c2.3,0,3.6-1.4,3.6-4v-9.6h3.7v9.5c0,5.1-2.9,7.6-7.4,7.6
        C173,29.4,170.3,26.9,170.3,21.9z M126.9,35.9H97V6h29.9V35.9z M110.9,32.4c0,0.2,0.5,0.3,0.6,0l1-8.3H110L110.9,32.4L110.9,32.4z
         M113.4,22.3h-4.3v1.3h4.3V22.3L113.4,22.3z M112.2,21.6c5.5,0.2,5.9-4.8,5.9-6.7c0-0.1-0.1-0.1-0.1,0c-0.2,0.4-0.9,1.8-2.8,2.6
        C113.4,18.3,112.3,20,112.2,21.6C112.1,21.6,112.2,21.6,112.2,21.6L112.2,21.6z M111.6,21.3c0.9-4.1,4.2-4.3,4.5-5
        c0.5-1.2-0.4-3.4-0.6-3.7c0,0-0.1,0-0.1,0c-0.5,1-1.2,2-1.7,2.4C113,15.6,110,17.8,111.6,21.3C111.5,21.3,111.6,21.3,111.6,21.3
        L111.6,21.3z M111,21.5c-1.8-3.9,1.8-6.4,2.4-7c0.1-0.1,0.1-0.1,0.1-0.2c0-1.2-0.7-3.2-0.9-3.5c0,0-0.1,0-0.1,0
        c-0.3,1.2-2,3-2.3,3.4C107.3,17.5,108,19.6,111,21.5C111,21.5,111,21.5,111,21.5L111,21.5z M110.2,21.6c-3.1-1.8-2.8-4.4-1.5-6.4
        c0,0,0-0.1,0-0.2c-0.1-0.5-0.6-1.6-0.8-1.9c-0.1-0.1-0.1-0.1-0.1,0c0,0.5-0.6,1.8-1.5,3.3C105.4,18,105.4,21.5,110.2,21.6
        C110.2,21.7,110.2,21.6,110.2,21.6L110.2,21.6z"/>
</svg>